# xmcd
#
# Track frame offsets: 
#        150
#        22032
#        36418
#        57686
#        78684
#        102248
#        124831
#        141972
#        168741
#        190824
#        198918
#        214036
#        231906
#        252477
#
# Disc length: 3594 seconds
#
# Revision: 0
# Processed by: cddbd v1.5.2PL0 Copyright (c) Steve Scherf et al.
# Submitted via: ExactAudioCopy v0.99pb4
#
DISCID=d80e080e
DTITLE=Mark Holder - Fry Pharmacy
DYEAR=2009
DGENRE=Blues
TTITLE0=Possession
TTITLE1=My Whole Life
TTITLE2=Delia
TTITLE3=Mystery Train
TTITLE4=Market St. Bridge
TTITLE5=Stone Pony
TTITLE6=Headlights
TTITLE7=Captain Captain
TTITLE8=Long Green Cadillac
TTITLE9=Wisconsin Johnson
TTITLE10=Dissappearing
TTITLE11=Nobody Wants To Cry
TTITLE12=Me and The Devil
TTITLE13=Jesus Gonna Make Up My Dying Bed
EXTD=
EXTT0=
EXTT1=
EXTT2=
EXTT3=
EXTT4=
EXTT5=
EXTT6=
EXTT7=
EXTT8=
EXTT9=
EXTT10=
EXTT11=
EXTT12=
EXTT13=
PLAYORDER=
